<svg xmlns="http://www.w3.org/2000/svg" viewBox="0 0 1440 820" role="img" aria-labelledby="title desc">
  <title id="title">tokens Dashboard 合成数据预览</title>
  <desc id="desc">展示总 Token、趋势、模型筛选与项目到模型再到会话的流光图。图中全部为合成数据。</desc>
  <defs>
    <linearGradient id="bg" x1="0" y1="0" x2="1" y2="1"><stop stop-color="#08101f"/><stop offset=".55" stop-color="#111b34"/><stop offset="1" stop-color="#0b1528"/></linearGradient>
    <linearGradient id="hero" x1="0" x2="1"><stop stop-color="#6ea0ff"/><stop offset=".55" stop-color="#b695ff"/><stop offset="1" stop-color="#ff86c5"/></linearGradient>
    <linearGradient id="flowA" x1="0" x2="1"><stop stop-color="#5b8def" stop-opacity=".2"/><stop offset=".5" stop-color="#5b8def"/><stop offset="1" stop-color="#a78bfa" stop-opacity=".35"/></linearGradient>
    <linearGradient id="flowB" x1="0" x2="1"><stop stop-color="#14b8a6" stop-opacity=".2"/><stop offset=".5" stop-color="#14b8a6"/><stop offset="1" stop-color="#f472b6" stop-opacity=".35"/></linearGradient>
    <filter id="shadow"><feDropShadow dx="0" dy="18" stdDeviation="20" flood-color="#000" flood-opacity=".35"/></filter>
    <filter id="glow"><feGaussianBlur stdDeviation="5" result="b"/><feMerge><feMergeNode in="b"/><feMergeNode in="SourceGraphic"/></feMerge></filter>
  </defs>
  <rect width="1440" height="820" rx="36" fill="url(#bg)"/>
  <circle cx="120" cy="90" r="180" fill="#5b8def" opacity=".12"/><circle cx="1300" cy="90" r="210" fill="#a78bfa" opacity=".11"/><circle cx="1110" cy="760" r="250" fill="#14b8a6" opacity=".08"/>
  <g font-family="-apple-system,BlinkMacSystemFont,'Segoe UI',sans-serif">
    <g transform="translate(64 50)"><rect width="40" height="40" rx="11" fill="#5b8def"/><text x="20" y="26" text-anchor="middle" fill="white" font-size="14" font-weight="800">Tk</text><text x="56" y="18" fill="#eef5ff" font-size="21" font-weight="800">Token 用量</text><text x="56" y="37" fill="#91a2bb" font-size="11">LOCAL · OFFLINE · SYNTHETIC PREVIEW</text></g>
    <g transform="translate(64 114)" fill="#94a5bd" font-size="12" font-weight="700"><rect width="1312" height="42" rx="13" fill="#ffffff" opacity=".055" stroke="#ffffff" stroke-opacity=".11"/><text x="24" y="27" fill="#78a5ff">总览</text><text x="84" y="27">趋势</text><text x="140" y="27">节奏</text><text x="196" y="27">流光</text><text x="252" y="27">成就</text><text x="308" y="27">Top</text><rect x="1082" y="8" width="210" height="27" rx="9" fill="#ffffff" opacity=".07"/><circle cx="1098" cy="21.5" r="4" fill="#a78bfa"/><text x="1110" y="26">月 · 3/4 模型 · 全景</text></g>
    <g filter="url(#shadow)">
      <g transform="translate(64 178)"><rect width="516" height="140" rx="20" fill="#ffffff" opacity=".07" stroke="#ffffff" stroke-opacity=".12"/><rect width="4" height="140" rx="2" fill="#5b8def"/><text x="24" y="34" fill="#8fa1ba" font-size="12">总 TOKEN</text><text x="24" y="88" fill="url(#hero)" font-size="48" font-weight="850">12,846,320</text><text x="25" y="115" fill="#91a2bb" font-size="12">1,284.6 万 tk · ▲ 18.4% 环比</text><path d="M360 101 C385 89 401 99 424 72 S468 88 496 48" fill="none" stroke="#79a4ff" stroke-width="3"/><path d="M360 101 C385 89 401 99 424 72 S468 88 496 48 L496 112 L360 112Z" fill="#5b8def" opacity=".12"/></g>
      <g transform="translate(598 178)"><rect width="242" height="140" rx="20" fill="#ffffff" opacity=".065" stroke="#ffffff" stroke-opacity=".11"/><text x="20" y="34" fill="#8fa1ba" font-size="12">缓存命中</text><text x="20" y="82" fill="#eef5ff" font-size="38" font-weight="800">68%</text><text x="20" y="108" fill="#91a2bb" font-size="12">省 874.1 万 tk</text><rect x="20" y="119" width="202" height="7" rx="4" fill="#ffffff" opacity=".08"/><rect x="20" y="119" width="138" height="7" rx="4" fill="url(#hero)"/></g>
      <g transform="translate(858 178)"><rect width="242" height="140" rx="20" fill="#ffffff" opacity=".065" stroke="#ffffff" stroke-opacity=".11"/><text x="20" y="34" fill="#8fa1ba" font-size="12">调用次数</text><text x="20" y="82" fill="#eef5ff" font-size="38" font-weight="800">4,208</text><text x="20" y="108" fill="#91a2bb" font-size="12">本地日志聚合</text></g>
      <g transform="translate(1118 178)"><rect width="258" height="140" rx="20" fill="#ffffff" opacity=".065" stroke="#ffffff" stroke-opacity=".11"/><text x="20" y="34" fill="#8fa1ba" font-size="12">主力模型</text><text x="20" y="82" fill="#eef5ff" font-size="29" font-weight="800">Claude</text><text x="20" y="108" fill="#91a2bb" font-size="12">4 个模型 · 可筛选</text></g>
    </g>
    <g transform="translate(64 342)" filter="url(#shadow)"><rect width="1312" height="408" rx="22" fill="#070d1a" opacity=".92" stroke="#6f90cf" stroke-opacity=".18"/><text x="24" y="35" fill="#dce9ff" font-size="13" font-weight="800" letter-spacing="1.4">TOKEN 流光图 · 项目 → 模型 → 会话</text><text x="1065" y="35" fill="#8396b2" font-size="11">宽度 = Token 流量</text><text x="50" y="73" fill="#8192aa" font-size="10" font-weight="800" letter-spacing="2">PROJECT</text><text x="615" y="73" fill="#8192aa" font-size="10" font-weight="800" letter-spacing="2">MODEL</text><text x="1170" y="73" fill="#8192aa" font-size="10" font-weight="800" letter-spacing="2">SESSION</text>
      <g fill="none" stroke-linecap="round"><path d="M190 132 C360 132 470 120 610 120" stroke="url(#flowA)" stroke-width="22" opacity=".8"/><path d="M190 222 C350 222 470 120 610 120" stroke="url(#flowA)" stroke-width="10" opacity=".55"/><path d="M190 312 C360 312 470 232 610 232" stroke="url(#flowB)" stroke-width="17" opacity=".75"/><path d="M190 132 C360 132 470 338 610 338" stroke="url(#flowA)" stroke-width="7" opacity=".5"/><path d="M702 120 C870 120 966 126 1124 126" stroke="url(#flowA)" stroke-width="18" opacity=".8"/><path d="M702 120 C870 120 966 215 1124 215" stroke="url(#flowA)" stroke-width="11" opacity=".6"/><path d="M702 232 C870 232 966 300 1124 300" stroke="url(#flowB)" stroke-width="16" opacity=".76"/><path d="M702 338 C870 338 966 365 1124 365" stroke="url(#flowA)" stroke-width="7" opacity=".5"/></g>
      <g font-size="11" font-weight="700" text-anchor="middle"><g transform="translate(110 132)"><rect x="-80" y="-21" width="160" height="42" rx="11" fill="#5b8def" opacity=".22" stroke="#8eb3ff"/><text y="-2" fill="#e5efff">project/alpha</text><text y="14" fill="#94a7c4" font-size="9">642.8 万 tk</text></g><g transform="translate(110 222)"><rect x="-80" y="-21" width="160" height="42" rx="11" fill="#a78bfa" opacity=".18" stroke="#c5adff"/><text y="-2" fill="#e5efff">project/beta</text><text y="14" fill="#94a7c4" font-size="9">238.4 万 tk</text></g><g transform="translate(110 312)"><rect x="-80" y="-21" width="160" height="42" rx="11" fill="#14b8a6" opacity=".19" stroke="#61d8c9"/><text y="-2" fill="#e5efff">project/gamma</text><text y="14" fill="#94a7c4" font-size="9">356.1 万 tk</text></g>
      <g transform="translate(656 120)"><rect x="-46" y="-22" width="92" height="44" rx="12" fill="#5b8def" opacity=".28" stroke="#93b7ff"/><text y="-2" fill="#eef5ff">Claude</text><text y="15" fill="#9cb0cd" font-size="9">721.0 万 tk</text></g><g transform="translate(656 232)"><rect x="-46" y="-22" width="92" height="44" rx="12" fill="#14b8a6" opacity=".25" stroke="#61d8c9"/><text y="-2" fill="#eef5ff">Gemini</text><text y="15" fill="#9cb0cd" font-size="9">356.1 万 tk</text></g><g transform="translate(656 338)"><rect x="-46" y="-22" width="92" height="44" rx="12" fill="#a78bfa" opacity=".25" stroke="#c7b1ff"/><text y="-2" fill="#eef5ff">Codex</text><text y="15" fill="#9cb0cd" font-size="9">80.6 万 tk</text></g>
      <g transform="translate(1204 126)"><rect x="-80" y="-21" width="160" height="42" rx="11" fill="#f472b6" opacity=".2" stroke="#ff9dce"/><text y="-2" fill="#e5efff">重构数据管线</text><text y="14" fill="#94a7c4" font-size="9">421.5 万 tk</text></g><g transform="translate(1204 215)"><rect x="-80" y="-21" width="160" height="42" rx="11" fill="#f59e0b" opacity=".18" stroke="#ffc85d"/><text y="-2" fill="#e5efff">完善交互测试</text><text y="14" fill="#94a7c4" font-size="9">299.5 万 tk</text></g><g transform="translate(1204 300)"><rect x="-80" y="-21" width="160" height="42" rx="11" fill="#14b8a6" opacity=".19" stroke="#61d8c9"/><text y="-2" fill="#e5efff">设计文档站</text><text y="14" fill="#94a7c4" font-size="9">356.1 万 tk</text></g><g transform="translate(1204 365)"><rect x="-80" y="-21" width="160" height="42" rx="11" fill="#a78bfa" opacity=".2" stroke="#c7b1ff"/><text y="-2" fill="#e5efff">修复边界状态</text><text y="14" fill="#94a7c4" font-size="9">80.6 万 tk</text></g></g>
      <g transform="translate(24 360)"><rect width="468" height="30" rx="10" fill="#080c16" opacity=".9" stroke="#6f90cf" stroke-opacity=".25"/><text x="13" y="20" fill="#9db0cc" font-size="10">悬停追踪链路 · 点击锁定 · 会话可逐轮回放</text></g>
    </g>
    <text x="1376" y="792" text-anchor="end" fill="#71839e" font-size="10">SYNTHETIC DATA · NO LOCAL IDENTIFIERS</text>
  </g>
</svg>
